<svg width="118" height="30" viewBox="0 0 118 30" fill="none" xmlns="http://www.w3.org/2000/svg">
<g clip-path="url(#clip0_1122_16220)">
<path d="M11.6688 13.9666V13.8793C14.5643 12.7601 16.3202 10.3035 16.3202 7.50081C16.3202 5.21566 15.4624 3.49167 14.0348 2.37248C12.3222 0.907236 10.0368 0.258789 6.48783 0.258789C3.99799 0.258789 1.5515 0.517544 0 0.860473V29.4389C1.18298 29.6103 3.05965 29.7818 5.50614 29.7818C9.99342 29.7818 13.0933 28.9214 15.0103 27.0664C16.3976 25.6448 17.336 23.7494 17.336 21.246C17.3391 16.9407 14.2794 14.6555 11.6688 13.9666ZM3.54895 3.40438C4.12186 3.27656 5.0602 3.14562 6.68912 3.14562C10.2783 3.14562 12.7279 4.48304 12.7279 7.88739C12.7279 10.69 10.5261 12.757 6.77274 12.757H3.54895V3.40438ZM6.52809 26.8544C5.26459 26.8544 4.24264 26.8108 3.54895 26.683V15.6033H6.48783C10.365 15.6033 13.5857 17.24 13.5857 21.2055C13.5857 25.4328 10.1978 26.8544 6.52809 26.8544Z" fill="#E91E25"/>
<path d="M33.2506 0C25.908 0 20.4824 6.03554 20.4824 15.2603C20.4824 24.0549 25.5829 30.0031 32.8449 30.0031C39.8623 30.0031 45.6131 24.7002 45.6131 14.6992C45.6131 6.07919 40.7573 0 33.2506 0ZM33.0462 26.9417C27.4564 26.9417 24.276 21.38 24.276 15.173C24.276 8.79455 27.2149 3.06142 33.0865 3.06142C39.0014 3.06142 41.8566 9.09696 41.8566 14.8706C41.8597 21.4673 38.6762 26.9417 33.0462 26.9417Z" fill="#E91E25"/>
<path d="M51.8956 0.430664C50.5887 0.430664 49.6504 1.46568 49.6504 2.79999C49.6504 4.09376 50.5485 5.12878 51.812 5.12878C53.2396 5.12878 54.1377 4.09376 54.0974 2.79999C54.1005 1.46568 53.2427 0.430664 51.8956 0.430664Z" fill="#E91E25"/>
<path d="M50.1027 8.69524H48.3438V12.2679H50.1027V29.5266H53.692V8.66406H50.1027V8.69524Z" fill="#E91E25"/>
<path d="M61.3627 5.12878C62.7904 5.12878 63.6885 4.09376 63.6482 2.79999C63.6482 1.46257 62.7904 0.430664 61.4433 0.430664C60.1395 0.430664 59.2012 1.46568 59.2012 2.79999C59.2012 4.09376 60.0992 5.12878 61.3627 5.12878Z" fill="#E91E25"/>
<path d="M63.2396 8.66406H59.6504V29.5266H63.2396V12.2679H65.0419V8.69524H63.2396V8.66406Z" fill="#E91E25"/>
<path d="M86.618 12.6289C86.618 17.1555 86.7016 20.6877 87.0268 24.569L86.9462 24.6127C85.6394 21.6385 84.0476 18.5771 82.0099 15.1728L73.1964 0.473633H69.3223V29.5259H72.6668V17.1119C72.6668 12.2828 72.5863 8.7912 72.3819 5.12811L72.5027 5.08446C73.8901 8.23005 75.7265 11.5502 77.6434 14.7831L86.3733 29.5259H89.9625V0.473633H86.618V12.6289Z" fill="#E91E25"/>
<path d="M108.038 14.2694V17.2871H113.628V25.9507C112.813 26.381 111.222 26.727 108.896 26.727C102.492 26.727 98.2893 22.3749 98.2893 15.002C98.2893 7.7163 102.656 3.32058 109.345 3.32058C112.12 3.32058 113.953 3.88174 115.424 4.57071L116.282 1.5093C115.099 0.907612 112.609 0.171875 109.429 0.171875C100.209 0.171875 94.5793 6.50982 94.5391 15.1703C94.5391 19.697 96.007 23.5752 98.3729 25.9913C101.064 28.7066 104.492 29.8258 108.654 29.8258C112.367 29.8258 115.508 28.8345 117.099 28.2297V14.2631H108.038V14.2694Z" fill="#E91E25"/>
</g>
<defs>
<clipPath id="clip0_1122_16220">
<rect width="117.097" height="30" fill="white"/>
</clipPath>
</defs>
</svg>
